<svg xmlns="http://www.w3.org/2000/svg" xmlns:xlink="http://www.w3.org/1999/xlink" width="200" zoomAndPan="magnify" viewBox="0 0 150 119.04" height="148" preserveAspectRatio="xMidYMid meet" version="1.0"><defs><clipPath id="3ae3d29843"><path d="M 0.601562 0 L 149.398438 0 L 149.398438 108 L 0.601562 108 Z M 0.601562 0 " clip-rule="nonzero"/></clipPath></defs><g clip-path="url(#3ae3d29843)"><path fill="#004aad" d="M 94.5 86.179688 C 96.222656 86.179688 97.867188 86.101562 99.433594 85.867188 C 101.234375 85.632812 102.644531 84.378906 103.117188 82.65625 C 103.585938 80.933594 103.117188 79.132812 101.707031 77.957031 L 94.734375 72.007812 C 93.796875 71.222656 93.246094 70.125 93.167969 68.875 C 93.089844 67.621094 93.484375 66.523438 94.265625 65.582031 L 102.722656 56.109375 C 103.585938 55.167969 104.601562 54.699219 105.855469 54.621094 C 107.109375 54.542969 108.207031 54.933594 109.144531 55.792969 L 117.605469 63.390625 C 118.855469 64.488281 120.5 64.878906 122.066406 64.332031 C 123.632812 63.78125 124.730469 62.53125 125.042969 60.886719 C 126.21875 54.304688 125.671875 47.023438 123.320312 41.070312 C 113.140625 14.914062 76.019531 13.816406 65.445312 40.835938 C 60.824219 52.582031 63.097656 67.230469 71.945312 76.546875 C 77.820312 82.8125 85.652344 86.179688 94.5 86.179688 Z M 3.105469 61.121094 L 27.539062 61.121094 C 28.949219 61.121094 30.046875 62.214844 30.046875 63.625 C 30.046875 65.035156 28.949219 66.132812 27.539062 66.132812 L 3.105469 66.132812 C 1.695312 66.132812 0.601562 65.035156 0.601562 63.625 C 0.601562 62.214844 1.695312 61.121094 3.105469 61.121094 Z M 18.378906 71.144531 L 22.527344 71.144531 C 23.9375 71.144531 25.035156 72.242188 25.035156 73.652344 C 25.035156 75.058594 23.9375 76.15625 22.527344 76.15625 L 18.378906 76.15625 C 16.96875 76.15625 15.871094 75.058594 15.871094 73.652344 C 15.871094 72.320312 16.96875 71.144531 18.378906 71.144531 Z M 39.914062 101.296875 L 52.835938 101.296875 C 54.246094 101.296875 55.34375 102.390625 55.34375 103.800781 C 55.34375 105.210938 54.246094 106.308594 52.835938 106.308594 L 39.914062 106.308594 C 38.503906 106.308594 37.410156 105.210938 37.410156 103.800781 C 37.332031 102.472656 38.503906 101.296875 39.914062 101.296875 Z M 29.5 81.246094 L 39.445312 81.246094 C 40.855469 81.246094 41.949219 82.34375 41.949219 83.753906 C 41.949219 85.164062 40.855469 86.257812 39.445312 86.257812 L 29.5 86.257812 C 28.089844 86.257812 26.992188 85.164062 26.992188 83.753906 C 26.992188 82.34375 28.089844 81.246094 29.5 81.246094 Z M 26.679688 40.992188 L 32.789062 40.992188 C 34.199219 40.992188 35.292969 42.089844 35.292969 43.5 C 35.292969 44.910156 34.199219 46.003906 32.789062 46.003906 L 26.679688 46.003906 C 25.269531 46.003906 24.171875 44.910156 24.171875 43.5 C 24.171875 42.089844 25.347656 40.992188 26.679688 40.992188 Z M 17.984375 51.015625 L 29.65625 51.015625 C 31.066406 51.015625 32.160156 52.113281 32.160156 53.523438 C 32.160156 54.933594 31.066406 56.03125 29.65625 56.03125 L 17.984375 56.03125 C 16.578125 56.03125 15.480469 54.933594 15.480469 53.523438 C 15.480469 52.191406 16.65625 51.015625 17.984375 51.015625 Z M 47.121094 91.273438 L 56.359375 91.273438 C 57.769531 91.273438 58.867188 90.175781 58.867188 88.765625 C 58.867188 87.355469 57.769531 86.257812 56.359375 86.257812 L 46.726562 86.257812 C 45.316406 86.257812 44.222656 85.164062 44.222656 83.753906 C 44.222656 82.34375 45.316406 81.246094 46.726562 81.246094 L 52.601562 81.246094 C 54.011719 81.246094 55.109375 80.152344 55.109375 78.742188 C 55.109375 77.332031 54.011719 76.234375 52.601562 76.234375 L 41.324219 76.234375 C 39.914062 76.234375 38.816406 75.136719 38.816406 73.730469 C 38.816406 72.320312 39.914062 71.222656 41.324219 71.222656 L 61.6875 71.222656 C 63.097656 71.222656 64.191406 70.125 64.191406 68.714844 C 64.191406 67.308594 63.097656 66.210938 61.6875 66.210938 L 37.171875 66.210938 C 35.765625 66.210938 34.667969 65.113281 34.667969 63.703125 C 34.667969 62.292969 35.765625 61.199219 37.171875 61.199219 L 44.925781 61.199219 C 46.335938 61.199219 47.433594 60.101562 47.433594 58.691406 C 47.433594 57.28125 46.335938 56.1875 44.925781 56.1875 L 36.78125 56.1875 C 35.371094 56.1875 34.277344 55.089844 34.277344 53.679688 C 34.277344 52.269531 35.371094 51.175781 36.78125 51.175781 L 45.160156 51.175781 C 46.570312 51.175781 47.667969 50.078125 47.667969 48.667969 C 47.667969 47.257812 46.570312 46.160156 45.160156 46.160156 L 39.835938 46.160156 C 38.503906 46.082031 37.410156 44.988281 37.410156 43.65625 C 37.410156 42.246094 38.503906 41.148438 39.914062 41.148438 L 55.1875 41.148438 C 56.597656 41.148438 57.691406 40.054688 57.691406 38.644531 C 57.691406 37.234375 56.597656 36.136719 55.1875 36.136719 L 36.390625 36.136719 C 34.980469 36.136719 33.882812 35.039062 33.882812 33.632812 C 33.882812 32.222656 34.980469 31.125 36.390625 31.125 L 51.820312 31.125 C 53.226562 31.125 54.324219 30.027344 54.324219 28.617188 C 54.324219 27.367188 53.386719 26.347656 52.210938 26.113281 L 45.160156 26.113281 C 43.753906 26.113281 42.65625 25.015625 42.65625 23.605469 C 42.65625 22.195312 43.753906 21.101562 45.160156 21.101562 L 61.84375 21.101562 C 62.078125 21.101562 62.234375 21.101562 62.46875 21.179688 C 63.800781 21.101562 64.820312 20.003906 64.820312 18.671875 C 64.820312 17.417969 63.878906 16.402344 62.703125 16.167969 L 54.480469 16.167969 C 53.070312 16.167969 51.976562 15.070312 51.976562 13.660156 C 51.976562 12.25 53.070312 11.15625 54.480469 11.15625 L 68.5 11.15625 C 69.910156 11.15625 71.007812 10.058594 71.007812 8.648438 C 71.007812 7.394531 70.066406 6.378906 68.890625 6.140625 L 62 6.140625 C 60.589844 6.140625 59.492188 5.046875 59.492188 3.636719 C 59.492188 2.226562 60.589844 1.128906 62 1.128906 C 72.964844 1.128906 83.851562 0.269531 94.5 0.269531 C 125.121094 0.0351562 149.398438 22.433594 149.398438 53.601562 C 149.398438 63.078125 146.894531 72.164062 142.195312 80.152344 C 141.097656 82.03125 141.488281 84.457031 143.132812 85.867188 L 147.285156 89.390625 C 148.226562 90.175781 148.773438 91.273438 148.851562 92.523438 C 148.929688 93.777344 148.539062 94.875 147.675781 95.8125 L 139.296875 105.132812 C 137.652344 106.933594 134.753906 107.089844 132.953125 105.445312 L 127.394531 100.433594 C 125.90625 99.101562 123.867188 98.867188 122.144531 99.886719 C 103.507812 110.378906 82.285156 106.308594 61.453125 106.308594 C 60.042969 106.308594 58.945312 105.210938 58.945312 103.800781 C 58.945312 102.390625 60.042969 101.296875 61.453125 101.296875 L 68.578125 101.296875 C 69.832031 101.140625 70.847656 100.121094 70.847656 98.789062 C 70.847656 97.378906 69.753906 96.285156 68.34375 96.285156 L 47.121094 96.285156 C 45.710938 96.285156 44.613281 95.1875 44.613281 93.777344 C 44.613281 92.367188 45.789062 91.273438 47.121094 91.273438 Z M 45.160156 10.917969 L 47.433594 10.917969 C 48.84375 10.917969 49.9375 12.015625 49.9375 13.425781 C 49.9375 14.835938 48.84375 15.933594 47.433594 15.933594 L 45.160156 15.933594 C 43.753906 15.933594 42.65625 14.835938 42.65625 13.425781 C 42.65625 12.015625 43.753906 10.917969 45.160156 10.917969 Z M 46.570312 0.894531 L 55.734375 0.894531 C 57.144531 0.894531 58.242188 1.992188 58.242188 3.402344 C 58.242188 4.8125 57.144531 5.90625 55.734375 5.90625 L 46.570312 5.90625 C 45.160156 5.90625 44.066406 4.8125 44.066406 3.402344 C 44.066406 1.992188 45.238281 0.894531 46.570312 0.894531 Z M 26.445312 20.867188 L 38.191406 20.867188 C 39.601562 20.867188 40.699219 21.960938 40.699219 23.371094 C 40.699219 24.78125 39.601562 25.878906 38.191406 25.878906 L 26.445312 25.878906 C 25.035156 25.878906 23.9375 24.78125 23.9375 23.371094 C 23.9375 22.039062 25.035156 20.867188 26.445312 20.867188 Z M 31.144531 71.144531 L 34.355469 71.144531 C 35.765625 71.144531 36.859375 72.242188 36.859375 73.652344 C 36.859375 75.058594 35.765625 76.15625 34.355469 76.15625 L 31.144531 76.15625 C 29.734375 76.15625 28.636719 75.058594 28.636719 73.652344 C 28.636719 72.320312 29.8125 71.144531 31.144531 71.144531 Z M 31.144531 71.144531 " fill-opacity="1" fill-rule="evenodd"/></g></svg>